<svg width="27" height="26" viewBox="0 0 27 26" fill="none" xmlns="http://www.w3.org/2000/svg">
<path d="M11.342 26C11.0074 26 10.7063 25.8864 10.4387 25.6592C10.2045 25.3995 10.0874 25.1074 10.0874 24.7828V15.97H1.25465C0.920074 15.97 0.618959 15.8564 0.351301 15.6292C0.1171 15.3695 0 15.0774 0 14.7528V11.0037C0 10.6467 0.1171 10.3546 0.351301 10.1273C0.585502 9.86766 0.886617 9.73783 1.25465 9.73783H10.0874V1.21723C10.0874 0.860174 10.2045 0.568039 10.4387 0.340824C10.7063 0.113607 11.0074 0 11.342 0H15.658C16.026 0 16.3271 0.113607 16.5613 0.340824C16.829 0.568039 16.9628 0.860174 16.9628 1.21723V9.73783H25.6952C26.0632 9.73783 26.3643 9.86766 26.5985 10.1273C26.8662 10.3546 27 10.6467 27 11.0037V14.7528C27 15.1099 26.8662 15.402 26.5985 15.6292C26.3643 15.8564 26.0632 15.97 25.6952 15.97H16.9628V24.7828C16.9628 25.1398 16.829 25.432 16.5613 25.6592C16.3271 25.8864 16.026 26 15.658 26H11.342Z" fill="#FF6633"/>
</svg>
