<svg width="25" height="28" viewBox="0 0 25 28" fill="none" xmlns="http://www.w3.org/2000/svg">
<path fill-rule="evenodd" clip-rule="evenodd" d="M6 25C6 23.6193 7.11929 22.5 8.5 22.5C9.88071 22.5 11 23.6193 11 25C11 26.3807 9.88071 27.5 8.5 27.5C7.11929 27.5 6 26.3807 6 25ZM8.5 23.5C7.67157 23.5 7 24.1716 7 25C7 25.8284 7.67157 26.5 8.5 26.5C9.32843 26.5 10 25.8284 10 25C10 24.1716 9.32843 23.5 8.5 23.5Z" fill="#414141"/>
<path fill-rule="evenodd" clip-rule="evenodd" d="M18 25C18 23.6193 19.1193 22.5 20.5 22.5C21.8807 22.5 23 23.6193 23 25C23 26.3807 21.8807 27.5 20.5 27.5C19.1193 27.5 18 26.3807 18 25ZM20.5 23.5C19.6716 23.5 19 24.1716 19 25C19 25.8284 19.6716 26.5 20.5 26.5C21.3284 26.5 22 25.8284 22 25C22 24.1716 21.3284 23.5 20.5 23.5Z" fill="#414141"/>
<path fill-rule="evenodd" clip-rule="evenodd" d="M1.5 4.5C1.22386 4.5 1 4.72386 1 5C1 5.27614 1.22386 5.5 1.5 5.5H5.08051C5.83783 9.79147 6.60333 14.0643 7.24931 18.3709C7.43288 19.5947 8.48416 20.5 9.72165 20.5H19.8597C21.0514 20.5 22.0774 19.6588 22.3111 18.4903L23.7503 11.2942C23.936 10.366 23.226 9.5 22.2795 9.5H7.66046C7.3575 9.5 7.07797 9.58901 6.84436 9.74093L5.99239 4.91311C5.95023 4.67418 5.74262 4.5 5.5 4.5H1.5ZM7.166 11.0742C7.12065 10.7719 7.35478 10.5 7.66046 10.5H22.2795C22.595 10.5 22.8316 10.7887 22.7698 11.0981L21.3305 18.2942C21.1903 18.9953 20.5747 19.5 19.8597 19.5H9.72165C8.97916 19.5 8.34839 18.9568 8.23825 18.2225L7.166 11.0742Z" fill="#414141"/>
<rect x="12.36" width="11.28" height="11" rx="4" fill="#FF6633"/>
<path d="M18.88 9C18.8133 9 18.7567 8.98 18.71 8.94C18.67 8.89333 18.65 8.83667 18.65 8.77V3.17L16.99 4.45C16.9433 4.49 16.8933 4.51 16.84 4.51C16.78 4.51 16.7233 4.47667 16.67 4.41L16.41 4.08C16.3767 4.03333 16.36 3.98667 16.36 3.94C16.36 3.86 16.3933 3.79667 16.46 3.75L18.64 2.07C18.7133 2.02333 18.8 2 18.9 2H19.41C19.4767 2 19.53 2.02333 19.57 2.07C19.6167 2.11 19.64 2.16333 19.64 2.23V8.77C19.64 8.83667 19.6167 8.89333 19.57 8.94C19.53 8.98 19.4767 9 19.41 9H18.88Z" fill="white"/>
</svg>
