<svg width="24" height="24" viewBox="0 0 24 24" fill="none" xmlns="http://www.w3.org/2000/svg">
<path fill-rule="evenodd" clip-rule="evenodd" d="M11.3325 1.89777C11.3323 1.89786 11.3327 1.89767 11.3325 1.89777L3.33359 5.89721L3.33249 5.89777C2.82282 6.15102 2.50039 6.6709 2.49999 7.24V16.7635C2.49602 17.3334 2.81535 17.8563 3.3241 18.113C3.32381 18.1129 3.32439 18.1132 3.3241 18.113L11.3236 22.1128C11.7461 22.3242 12.2437 22.3243 12.6662 22.1129L20.6664 18.1128L20.6675 18.1122C21.1772 17.8589 21.4997 17.3389 21.5 16.7697V7.24027C21.4997 6.67106 21.1772 6.15106 20.6675 5.89777L20.6664 5.89721L12.6675 1.89777C12.6673 1.89767 12.6677 1.89786 12.6675 1.89777C12.2473 1.6892 11.7527 1.6892 11.3325 1.89777ZM10.8875 1.00223C11.5883 0.654003 12.4117 0.654003 13.1125 1.00223L13.1136 1.00279L21.1125 5.00223C21.1123 5.00215 21.1126 5.00232 21.1125 5.00223C21.9618 5.42449 22.4995 6.29123 22.5 7.23974V16.77C22.4995 17.7184 21.9623 18.5852 21.1131 19.0074C21.1129 19.0075 21.1134 19.0073 21.1131 19.0074L13.1137 23.0071C13.1137 23.0072 13.1138 23.0071 13.1137 23.0071C12.4096 23.3594 11.5805 23.3595 10.8764 23.0072C10.8763 23.0072 10.8764 23.0072 10.8764 23.0072L2.87638 19.0072L2.875 19.0065C2.02679 18.5791 1.49407 17.708 1.49999 16.7584V7.24C1.50049 6.29154 2.03766 5.42481 2.88689 5.00253C2.88669 5.00263 2.88709 5.00243 2.88689 5.00253L10.8864 1.00279L10.8875 1.00223Z" fill="#414141"/>
<path fill-rule="evenodd" clip-rule="evenodd" d="M1.87278 5.93639C1.99628 5.6894 2.29661 5.58929 2.5436 5.71279L12 10.441L21.4564 5.71279C21.7034 5.58929 22.0037 5.6894 22.1272 5.93639C22.2507 6.18338 22.1506 6.48372 21.9036 6.60721L12.2236 11.4472C12.0828 11.5176 11.9172 11.5176 11.7764 11.4472L2.09639 6.60721C1.8494 6.48372 1.74929 6.18338 1.87278 5.93639Z" fill="#414141"/>
<path fill-rule="evenodd" clip-rule="evenodd" d="M12 10.5C12.2761 10.5 12.5 10.7239 12.5 11V22.76C12.5 23.0361 12.2761 23.26 12 23.26C11.7239 23.26 11.5 23.0361 11.5 22.76V11C11.5 10.7239 11.7239 10.5 12 10.5Z" fill="#414141"/>
<path fill-rule="evenodd" clip-rule="evenodd" d="M6.55277 3.27639C6.67627 3.0294 6.9766 2.92929 7.22359 3.05279L17.2236 8.05279C17.4706 8.17628 17.5707 8.47662 17.4472 8.72361C17.3237 8.9706 17.0234 9.07071 16.7764 8.94721L6.77638 3.94721C6.52939 3.82372 6.42928 3.52338 6.55277 3.27639Z" fill="#414141"/>
</svg>
