<svg width="31" height="33" viewBox="0 0 31 33" fill="none" xmlns="http://www.w3.org/2000/svg">
<path d="M5.65693 33C5.32506 33 5.03844 32.89 4.79708 32.67C4.58589 32.45 4.48029 32.1671 4.48029 31.8214V27.6729H1.13139C0.799513 27.6729 0.527981 27.5629 0.316788 27.3429C0.105596 27.0914 0 26.7929 0 26.4471V24.5614C0 24.2157 0.105596 23.9329 0.316788 23.7129C0.558151 23.4929 0.829684 23.3829 1.13139 23.3829H4.48029V21.0257H1.13139C0.829684 21.0257 0.558151 20.9157 0.316788 20.6957C0.105596 20.4443 0 20.1614 0 19.8471V16.0757C0 15.73 0.105596 15.4471 0.316788 15.2271C0.558151 15.0071 0.829684 14.8971 1.13139 14.8971H4.48029V1.22572C4.48029 0.88 4.58589 0.597143 4.79708 0.377144C5.03844 0.125715 5.32506 0 5.65693 0H18.4642C22.3562 0 25.4185 0.927143 27.6511 2.78143C29.8837 4.63572 31 7.35428 31 10.9371C31 14.3 29.8837 16.83 27.6511 18.5271C25.4487 20.1929 22.3864 21.0257 18.4642 21.0257H13.3051V23.3829H19.0978C19.4297 23.3829 19.7012 23.4929 19.9124 23.7129C20.1236 23.9329 20.2292 24.2157 20.2292 24.5614V26.4471C20.2292 26.7929 20.1236 27.0914 19.9124 27.3429C19.7012 27.5629 19.4297 27.6729 19.0978 27.6729H13.3051V31.8214C13.3051 32.1671 13.1844 32.45 12.9431 32.67C12.7319 32.89 12.4603 33 12.1285 33H5.65693ZM18.238 14.8971C19.4749 14.8971 20.4404 14.5671 21.1343 13.9071C21.8584 13.2157 22.2204 12.21 22.2204 10.89C22.2204 9.66429 21.8886 8.67429 21.2248 7.92C20.5611 7.16571 19.5654 6.78857 18.238 6.78857H13.1241V14.8971H18.238Z" fill="#70C05B"/>
</svg>
