<svg width="54" height="55" viewBox="0 0 54 55" fill="none" xmlns="http://www.w3.org/2000/svg">
<path d="M9.85401 55C9.27591 55 8.77664 54.8167 8.3562 54.45C7.98832 54.0833 7.80438 53.6119 7.80438 53.0357V46.1214H1.9708C1.3927 46.1214 0.919708 45.9381 0.551825 45.5714C0.183942 45.1524 0 44.6548 0 44.0786V40.9357C0 40.3595 0.183942 39.8881 0.551825 39.5214C0.972263 39.1548 1.44526 38.9714 1.9708 38.9714H7.80438V35.0429H1.9708C1.44526 35.0429 0.972263 34.8595 0.551825 34.4929C0.183942 34.0738 0 33.6024 0 33.0786V26.7929C0 26.2167 0.183942 25.7452 0.551825 25.3786C0.972263 25.0119 1.44526 24.8286 1.9708 24.8286H7.80438V2.04286C7.80438 1.46667 7.98832 0.995238 8.3562 0.628573C8.77664 0.209524 9.27591 0 9.85401 0H32.1635C38.9431 0 44.2774 1.54524 48.1664 4.63572C52.0555 7.72619 54 12.2571 54 18.2286C54 23.8333 52.0555 28.05 48.1664 30.8786C44.3299 33.6548 38.9956 35.0429 32.1635 35.0429H23.1766V38.9714H33.2671C33.8453 38.9714 34.3182 39.1548 34.6861 39.5214C35.054 39.8881 35.238 40.3595 35.238 40.9357V44.0786C35.238 44.6548 35.054 45.1524 34.6861 45.5714C34.3182 45.9381 33.8453 46.1214 33.2671 46.1214H23.1766V53.0357C23.1766 53.6119 22.9664 54.0833 22.546 54.45C22.1781 54.8167 21.7051 55 21.127 55H9.85401ZM31.7693 24.8286C33.9241 24.8286 35.6058 24.2786 36.8146 23.1786C38.0759 22.0262 38.7066 20.35 38.7066 18.15C38.7066 16.1071 38.1285 14.4571 36.9723 13.2C35.8161 11.9429 34.0817 11.3143 31.7693 11.3143H22.8613V24.8286H31.7693Z" fill="#70C05B"/>
</svg>
